# xmcd
#
# Track frame offsets:
#	150
#	15550
#	36423
#	54484
#	68781
#	88935
#	103450
#	118494
#	133058
#	151153
#
# Disc length: 2453 seconds
#
# Revision: 1
# Processed by: cddbd v1.5.2PL0 Copyright (c) Steve Scherf et al.
# Submitted via: audiograbber 1.83.01
#
DISCID=9009930a
DTITLE=Jack Ferguson - Shackles and Chains
DYEAR=2008
DGENRE=Bluegrass
TTITLE0=Greenville Trestle High
TTITLE1=Shackles and Chains
TTITLE2=Many Hills of Time
TTITLE3=Remember Me
TTITLE4=Carter's Blues
TTITLE5=Beginning of Goodbye
TTITLE6=Satan's Jewel Crown
TTITLE7=Back to Hancock County
TTITLE8=Lord I'm Ready to Go Home
TTITLE9=Renfro Valley
EXTD=
EXTT0=
EXTT1=
EXTT2=
EXTT3=
EXTT4=
EXTT5=
EXTT6=
EXTT7=
EXTT8=
EXTT9=
PLAYORDER=
